<svg width="17" height="19" viewBox="0 0 17 19" fill="none" xmlns="http://www.w3.org/2000/svg">
    <path
        d="M11.4388 4.80785V4.16679C11.4388 3.26922 11.4388 2.82043 11.2641 2.4776C11.1104 2.17605 10.8652 1.93087 10.5637 1.77722C10.2209 1.60254 9.77207 1.60254 8.8745 1.60254H7.59238C6.69481 1.60254 6.24602 1.60254 5.90319 1.77722C5.60163 1.93087 5.35646 2.17605 5.20281 2.4776C5.02813 2.82043 5.02813 3.26922 5.02813 4.16679V4.80785M6.63078 9.21516V13.2218M9.8361 9.21516V13.2218M1.02148 4.80785H15.4454M13.8427 4.80785V13.7827C13.8427 15.1291 13.8427 15.8023 13.5807 16.3165C13.3502 16.7688 12.9825 17.1366 12.5301 17.3671C12.0159 17.6291 11.3427 17.6291 9.99636 17.6291H6.47052C5.12416 17.6291 4.45098 17.6291 3.93674 17.3671C3.4844 17.1366 3.11664 16.7688 2.88616 16.3165C2.62414 15.8023 2.62414 15.1291 2.62414 13.7827V4.80785"
        stroke="#EF4444" stroke-width="1.60266" stroke-linecap="round" stroke-linejoin="round" />
</svg>